<svg xmlns="http://www.w3.org/2000/svg" width="80" height="16" fill="none"><path fill="#F1E255" d="m8 0 1.796 5.528h5.813l-4.703 3.416 1.796 5.528L8 11.056l-4.702 3.416 1.796-5.528L.392 5.528h5.812L8 0ZM24 0l1.796 5.528h5.813l-4.703 3.416 1.796 5.528L24 11.056l-4.702 3.416 1.796-5.528-4.703-3.416h5.813L24 0ZM40 0l1.796 5.528h5.813l-4.703 3.416 1.796 5.528L40 11.056l-4.702 3.416 1.796-5.528-4.703-3.416h5.813L40 0ZM56 0l1.796 5.528h5.813l-4.703 3.416 1.796 5.528L56 11.056l-4.702 3.416 1.796-5.528-4.703-3.416h5.813L56 0ZM72 0l1.796 5.528h5.813l-4.703 3.416 1.796 5.528L72 11.056l-4.702 3.416 1.796-5.528-4.703-3.416h5.813L72 0Z"/></svg>