<svg width="135" height="40" viewBox="0 0 135 40" fill="none" xmlns="http://www.w3.org/2000/svg">
<path d="M9.43001 39.1279C9.08569 39.1279 8.74969 39.124 8.40807 39.1172C7.70038 39.109 6.99434 39.0545 6.29574 38.954C5.64434 38.8548 5.0133 38.6701 4.42345 38.406C3.839 38.1442 3.30594 37.8009 2.84469 37.3892C2.37676 36.9824 1.98718 36.5106 1.6914 35.9924C1.39236 35.4709 1.18541 34.9119 1.07775 34.3349C0.961494 33.7149 0.898592 33.088 0.889592 32.4595C0.882427 32.2486 0.873047 31.5462 0.873047 31.5462V8.44099C0.873047 8.44099 0.883037 7.74944 0.889648 7.54627C0.898266 6.91883 0.960802 6.29287 1.07671 5.67382C1.18457 5.09523 1.39168 4.53461 1.69088 4.01138C1.98557 3.49359 2.37299 3.02141 2.8381 2.61315C3.30269 2.20101 3.83746 1.85592 4.42289 1.59047C5.01139 1.3273 5.64123 1.14391 6.29132 1.04642C6.99221 0.944969 7.7007 0.890117 8.41085 0.88233L9.43057 0.870117H125.57L126.602 0.88282C127.306 0.89022 128.008 0.944582 128.702 1.04544C129.359 1.14415 129.995 1.32883 130.59 1.5934C131.763 2.12836 132.718 2.97471 133.32 4.01383C133.614 4.53344 133.818 5.08948 133.924 5.66308C134.042 6.28721 134.107 6.91808 134.121 7.55067C134.124 7.83393 134.124 8.13819 134.124 8.44099C134.133 8.81607 134.133 9.17307 134.133 9.53301V30.4659C134.133 30.8293 134.133 31.1839 134.124 31.5413C134.124 31.8666 134.124 32.1646 134.12 32.4712C134.107 33.0925 134.042 33.7122 133.927 34.3251C133.821 34.9063 133.615 35.4697 133.316 35.9954C133.018 36.508 132.631 36.9757 132.169 37.3814C131.707 37.7953 131.173 38.1406 130.587 38.4041C129.994 38.6702 129.358 38.8556 128.702 38.954C128.004 39.055 127.297 39.1096 126.59 39.1172C126.259 39.124 125.912 39.1279 125.576 39.1279L124.351 39.1299L9.43001 39.1279Z" fill="#152026"/>
<path d="M32.7973 20.3004C32.8081 19.4657 33.0298 18.6473 33.4418 17.9214C33.8538 17.1954 34.4428 16.5855 35.1539 16.1483C34.7021 15.5031 34.1062 14.9722 33.4134 14.5976C32.7205 14.2231 31.9499 14.0152 31.1627 13.9906C29.4835 13.8143 27.8555 14.9954 26.9998 14.9954C26.1275 14.9954 24.81 14.0081 23.3913 14.0373C22.4736 14.0669 21.5793 14.3338 20.7954 14.8119C20.0115 15.2899 19.3649 15.9629 18.9184 16.7652C16.9844 20.1136 18.427 25.0348 20.2796 27.7414C21.2065 29.0668 22.2898 30.5472 23.7072 30.4947C25.0943 30.4372 25.6123 29.6102 27.2866 29.6102C28.9454 29.6102 29.4314 30.4947 30.8776 30.4614C32.366 30.4372 33.3038 29.1301 34.1981 27.7922C34.8641 26.8478 35.3766 25.8041 35.7166 24.6996C34.8518 24.3339 34.1139 23.7217 33.5948 22.9394C33.0757 22.1571 32.7983 21.2393 32.7973 20.3004Z" fill="white"/>
<path d="M30.0659 12.2107C30.8775 11.2365 31.2773 9.98439 31.1805 8.72021C29.9406 8.85043 28.7953 9.44296 27.9728 10.3798C27.5707 10.8374 27.2627 11.3698 27.0665 11.9466C26.8702 12.5233 26.7896 13.1331 26.8291 13.741C27.4493 13.7474 28.0628 13.613 28.6235 13.3479C29.1841 13.0828 29.6773 12.694 30.0659 12.2107Z" fill="white"/>
<path d="M50.3306 27.1397H45.5972L44.4604 30.4961H42.4556L46.939 18.0781H49.022L53.5054 30.4961H51.4663L50.3306 27.1397ZM46.0874 25.5908H49.8394L47.9898 20.1436H47.938L46.0874 25.5908Z" fill="white"/>
<path d="M63.188 25.9696C63.188 28.7831 61.6821 30.5908 59.4097 30.5908C58.834 30.6209 58.2615 30.4883 57.7577 30.2081C57.2539 29.928 56.8392 29.5116 56.5611 29.0067H56.5181V33.4912H54.6597V21.4421H56.4585V22.948H56.4927C56.7837 22.4455 57.2054 22.0313 57.713 21.7495C58.2206 21.4676 58.7952 21.3287 59.3755 21.3474C61.6733 21.3474 63.188 23.1638 63.188 25.9696ZM61.2778 25.9696C61.2778 24.1365 60.3306 22.9314 58.8853 22.9314C57.4653 22.9314 56.5103 24.1619 56.5103 25.9696C56.5103 27.7938 57.4653 29.0155 58.8853 29.0155C60.3306 29.0155 61.2778 27.8192 61.2778 25.9696Z" fill="white"/>
<path d="M73.1528 25.9696C73.1528 28.7831 71.647 30.5908 69.3745 30.5908C68.7989 30.6209 68.2264 30.4883 67.7226 30.2081C67.2188 29.928 66.8041 29.5116 66.5259 29.0067H66.4829V33.4912H64.6245V21.4421H66.4233V22.948H66.4575C66.7485 22.4455 67.1702 22.0313 67.6778 21.7495C68.1855 21.4676 68.76 21.3287 69.3403 21.3474C71.6382 21.3474 73.1528 23.1638 73.1528 25.9696ZM71.2427 25.9696C71.2427 24.1365 70.2954 22.9314 68.8501 22.9314C67.4302 22.9314 66.4751 24.1619 66.4751 25.9696C66.4751 27.7938 67.4302 29.0155 68.8501 29.0155C70.2954 29.0155 71.2427 27.8192 71.2427 25.9696H71.2427Z" fill="white"/>
<path d="M79.7388 27.0362C79.8765 28.2676 81.0728 29.0762 82.7076 29.0762C84.274 29.0762 85.4009 28.2676 85.4009 27.1572C85.4009 26.1934 84.7212 25.6162 83.1118 25.2207L81.5025 24.833C79.2222 24.2822 78.1636 23.2158 78.1636 21.4854C78.1636 19.3428 80.0308 17.8711 82.6822 17.8711C85.3062 17.8711 87.105 19.3428 87.1656 21.4854H85.2896C85.1773 20.2461 84.1528 19.4981 82.6558 19.4981C81.1587 19.4981 80.1343 20.2549 80.1343 21.3565C80.1343 22.2344 80.7886 22.751 82.3892 23.1465L83.7573 23.4824C86.3052 24.0849 87.3638 25.1084 87.3638 26.9248C87.3638 29.248 85.5132 30.7031 82.5698 30.7031C79.8159 30.7031 77.9565 29.2822 77.8364 27.0361L79.7388 27.0362Z" fill="white"/>
<path d="M91.3745 19.2998V21.4424H93.0962V22.9141H91.3745V27.9054C91.3745 28.6808 91.7192 29.0421 92.4761 29.0421C92.6805 29.0385 92.8845 29.0242 93.0874 28.9991V30.462C92.7471 30.5256 92.4013 30.5544 92.0552 30.5479C90.2222 30.5479 89.5073 29.8595 89.5073 28.1036V22.9141H88.1909V21.4424H89.5073V19.2998H91.3745Z" fill="white"/>
<path d="M94.0933 25.9697C94.0933 23.1211 95.771 21.3311 98.3872 21.3311C101.012 21.3311 102.682 23.1211 102.682 25.9697C102.682 28.8262 101.021 30.6084 98.3872 30.6084C95.7543 30.6084 94.0933 28.8262 94.0933 25.9697ZM100.789 25.9697C100.789 24.0156 99.8931 22.8623 98.3872 22.8623C96.8813 22.8623 95.9868 24.0244 95.9868 25.9697C95.9868 27.9316 96.8813 29.0762 98.3872 29.0762C99.8931 29.0762 100.789 27.9316 100.789 25.9697H100.789Z" fill="white"/>
<path d="M104.214 21.4425H105.987V22.9835H106.03C106.15 22.5022 106.432 22.0769 106.828 21.779C107.225 21.4811 107.712 21.3288 108.208 21.3478C108.422 21.347 108.635 21.3703 108.844 21.4171V23.1554C108.574 23.0727 108.292 23.0348 108.009 23.0431C107.739 23.0321 107.47 23.0797 107.22 23.1826C106.97 23.2855 106.746 23.4412 106.562 23.6391C106.378 23.837 106.239 24.0723 106.154 24.329C106.07 24.5857 106.042 24.8576 106.073 25.126V30.4961H104.214L104.214 21.4425Z" fill="white"/>
<path d="M117.413 27.8369C117.163 29.4805 115.562 30.6084 113.514 30.6084C110.88 30.6084 109.246 28.8437 109.246 26.0127C109.246 23.1729 110.889 21.3311 113.436 21.3311C115.941 21.3311 117.516 23.0518 117.516 25.7969V26.4336H111.122V26.5459C111.092 26.8791 111.134 27.2148 111.244 27.5306C111.354 27.8464 111.53 28.1352 111.761 28.3778C111.991 28.6203 112.27 28.8111 112.58 28.9374C112.89 29.0637 113.223 29.1226 113.557 29.1103C113.996 29.1515 114.437 29.0498 114.814 28.8203C115.19 28.5909 115.483 28.246 115.648 27.8369L117.413 27.8369ZM111.13 25.1348H115.657C115.673 24.8352 115.628 24.5354 115.523 24.2541C115.419 23.9729 115.257 23.7164 115.048 23.5006C114.84 23.2849 114.589 23.1145 114.312 23.0003C114.034 22.8861 113.736 22.8305 113.436 22.8369C113.133 22.8351 112.833 22.8933 112.553 23.008C112.273 23.1227 112.019 23.2918 111.804 23.5054C111.59 23.7191 111.42 23.973 111.304 24.2527C111.189 24.5323 111.13 24.8321 111.13 25.1348V25.1348Z" fill="white"/>
<path d="M45.8545 8.73089C46.2441 8.70293 46.6351 8.76179 46.9992 8.90323C47.3633 9.04466 47.6915 9.26514 47.9601 9.54876C48.2286 9.83239 48.4309 10.1721 48.5523 10.5434C48.6737 10.9146 48.7112 11.3082 48.6621 11.6957C48.6621 13.602 47.6318 14.6977 45.8545 14.6977H43.6992V8.73089H45.8545ZM44.626 13.8539H45.751C46.0294 13.8705 46.308 13.8249 46.5665 13.7203C46.8251 13.6157 47.057 13.4547 47.2455 13.2491C47.434 13.0436 47.5743 12.7986 47.6562 12.532C47.738 12.2653 47.7594 11.9838 47.7187 11.7079C47.7564 11.4331 47.7329 11.1533 47.6498 10.8886C47.5667 10.624 47.426 10.381 47.238 10.177C47.0499 9.9731 46.8191 9.81329 46.562 9.70905C46.3049 9.60481 46.028 9.55873 45.751 9.5741H44.626V13.8539Z" fill="white"/>
<path d="M49.7088 12.4443C49.6805 12.1484 49.7143 11.8498 49.8082 11.5677C49.902 11.2857 50.0538 11.0263 50.2537 10.8063C50.4536 10.5864 50.6974 10.4106 50.9692 10.2903C51.2411 10.17 51.535 10.1079 51.8323 10.1079C52.1296 10.1079 52.4236 10.17 52.6954 10.2903C52.9673 10.4106 53.211 10.5864 53.4109 10.8063C53.6109 11.0263 53.7626 11.2857 53.8565 11.5677C53.9503 11.8498 53.9842 12.1484 53.9558 12.4443C53.9847 12.7405 53.9512 13.0395 53.8577 13.322C53.7641 13.6045 53.6124 13.8644 53.4124 14.0848C53.2124 14.3052 52.9685 14.4813 52.6964 14.6019C52.4243 14.7224 52.1299 14.7847 51.8323 14.7847C51.5347 14.7847 51.2404 14.7224 50.9682 14.6019C50.6961 14.4813 50.4522 14.3052 50.2522 14.0848C50.0522 13.8644 49.9006 13.6045 49.807 13.322C49.7134 13.0395 49.6799 12.7405 49.7088 12.4443ZM53.0418 12.4443C53.0418 11.4682 52.6033 10.8974 51.8338 10.8974C51.0613 10.8974 50.6268 11.4682 50.6268 12.4443C50.6268 13.4282 51.0613 13.9946 51.8338 13.9946C52.6033 13.9946 53.0418 13.4243 53.0418 12.4443H53.0418Z" fill="white"/>
<path d="M59.6016 14.6978H58.6797L57.749 11.3813H57.6787L56.752 14.6978H55.8389L54.5977 10.1948H55.499L56.3057 13.6308H56.3721L57.2979 10.1948H58.1504L59.0762 13.6308H59.1465L59.9492 10.1948H60.8379L59.6016 14.6978Z" fill="white"/>
<path d="M61.8818 10.1949H62.7373V10.9102H62.8037C62.9164 10.6533 63.1064 10.4379 63.3472 10.2941C63.5881 10.1503 63.8679 10.0852 64.1475 10.1079C64.3666 10.0915 64.5866 10.1245 64.7912 10.2046C64.9958 10.2847 65.1797 10.4098 65.3294 10.5707C65.4791 10.7315 65.5907 10.924 65.6559 11.1338C65.7211 11.3436 65.7382 11.5654 65.7061 11.7827V14.6977H64.8174V12.0059C64.8174 11.2823 64.5029 10.9224 63.8457 10.9224C63.6969 10.9155 63.5484 10.9408 63.4104 10.9966C63.2723 11.0525 63.148 11.1375 63.0459 11.2459C62.9437 11.3543 62.8663 11.4834 62.8187 11.6246C62.7712 11.7657 62.7547 11.9154 62.7705 12.0635V14.6978H61.8818L61.8818 10.1949Z" fill="white"/>
<path d="M67.1221 8.43701H68.0107V14.6978H67.1221V8.43701Z" fill="white"/>
<path d="M69.2459 12.4444C69.2176 12.1484 69.2514 11.8499 69.3453 11.5678C69.4392 11.2857 69.591 11.0263 69.7909 10.8064C69.9909 10.5864 70.2346 10.4106 70.5065 10.2903C70.7783 10.17 71.0724 10.1079 71.3696 10.1079C71.6669 10.1079 71.9609 10.17 72.2328 10.2903C72.5047 10.4106 72.7484 10.5864 72.9484 10.8064C73.1483 11.0263 73.3001 11.2857 73.394 11.5678C73.4878 11.8499 73.5217 12.1484 73.4934 12.4444C73.5222 12.7406 73.4888 13.0396 73.3951 13.3221C73.3015 13.6046 73.1498 13.8645 72.9498 14.0849C72.7498 14.3053 72.5059 14.4814 72.2337 14.6019C71.9616 14.7225 71.6673 14.7847 71.3696 14.7847C71.072 14.7847 70.7777 14.7225 70.5055 14.6019C70.2334 14.4814 69.9895 14.3053 69.7895 14.0849C69.5895 13.8645 69.4378 13.6046 69.3442 13.3221C69.2505 13.0396 69.2171 12.7406 69.2459 12.4444ZM72.5789 12.4444C72.5789 11.4683 72.1404 10.8975 71.3709 10.8975C70.5984 10.8975 70.1639 11.4683 70.1639 12.4444C70.1639 13.4283 70.5984 13.9947 71.3709 13.9947C72.1404 13.9947 72.5789 13.4244 72.5789 12.4444H72.5789Z" fill="white"/>
<path d="M74.4292 13.4243C74.4292 12.6138 75.0327 12.1465 76.104 12.0801L77.3237 12.0098V11.6211C77.3237 11.1455 77.0093 10.877 76.4019 10.877C75.9058 10.877 75.562 11.0591 75.4634 11.3774H74.603C74.6938 10.604 75.4214 10.1079 76.4429 10.1079C77.5718 10.1079 78.2085 10.6699 78.2085 11.6211V14.6978H77.353V14.0649H77.2827C77.14 14.2919 76.9396 14.477 76.702 14.6012C76.4643 14.7254 76.198 14.7843 75.9302 14.7719C75.7411 14.7916 75.5501 14.7714 75.3693 14.7127C75.1886 14.654 75.0221 14.5581 74.8807 14.4311C74.7393 14.3042 74.626 14.149 74.5483 13.9756C74.4705 13.8021 74.4299 13.6144 74.4292 13.4243ZM77.3237 13.0395V12.6631L76.2241 12.7334C75.604 12.7749 75.3227 12.9858 75.3227 13.3828C75.3227 13.7881 75.6743 14.0239 76.1577 14.0239C76.2994 14.0382 76.4425 14.0239 76.5785 13.9819C76.7145 13.9398 76.8406 13.8707 76.9494 13.7789C77.0582 13.6871 77.1474 13.5743 77.2117 13.4473C77.276 13.3202 77.3141 13.1816 77.3237 13.0395Z" fill="white"/>
<path d="M79.3765 12.4444C79.3765 11.0215 80.1079 10.1201 81.2456 10.1201C81.527 10.1072 81.8063 10.1746 82.0508 10.3145C82.2954 10.4544 82.495 10.661 82.6265 10.9101H82.6929V8.43701H83.5815V14.6978H82.73V13.9863H82.6597C82.5181 14.2338 82.3115 14.4378 82.0622 14.5763C81.813 14.7148 81.5306 14.7825 81.2456 14.772C80.1001 14.772 79.3765 13.8706 79.3765 12.4444ZM80.2945 12.4444C80.2945 13.3994 80.7447 13.9741 81.4976 13.9741C82.2466 13.9741 82.7095 13.3911 82.7095 12.4483C82.7095 11.5098 82.2417 10.9185 81.4976 10.9185C80.7495 10.9185 80.2944 11.4971 80.2944 12.4444H80.2945Z" fill="white"/>
<path d="M87.2581 12.4443C87.2298 12.1484 87.2636 11.8498 87.3575 11.5677C87.4513 11.2857 87.6031 11.0263 87.803 10.8063C88.003 10.5864 88.2467 10.4106 88.5185 10.2903C88.7904 10.17 89.0844 10.1079 89.3816 10.1079C89.6789 10.1079 89.9729 10.17 90.2447 10.2903C90.5166 10.4106 90.7603 10.5864 90.9602 10.8063C91.1602 11.0263 91.3119 11.2857 91.4058 11.5677C91.4996 11.8498 91.5335 12.1484 91.5052 12.4443C91.534 12.7405 91.5006 13.0395 91.407 13.322C91.3134 13.6045 91.1617 13.8644 90.9617 14.0848C90.7617 14.3052 90.5178 14.4813 90.2457 14.6019C89.9736 14.7224 89.6793 14.7847 89.3816 14.7847C89.084 14.7847 88.7897 14.7224 88.5175 14.6019C88.2454 14.4813 88.0015 14.3052 87.8015 14.0848C87.6015 13.8644 87.4499 13.6045 87.3563 13.322C87.2627 13.0395 87.2292 12.7405 87.2581 12.4443ZM90.5911 12.4443C90.5911 11.4682 90.1526 10.8974 89.3831 10.8974C88.6106 10.8974 88.1761 11.4682 88.1761 12.4443C88.1761 13.4282 88.6107 13.9946 89.3831 13.9946C90.1526 13.9946 90.5911 13.4243 90.5911 12.4443Z" fill="white"/>
<path d="M92.6978 10.1949H93.5532V10.9102H93.6196C93.7323 10.6533 93.9223 10.4379 94.1632 10.2941C94.404 10.1503 94.6838 10.0852 94.9634 10.1079C95.1825 10.0915 95.4025 10.1245 95.6071 10.2046C95.8117 10.2847 95.9956 10.4098 96.1453 10.5707C96.295 10.7315 96.4066 10.924 96.4718 11.1338C96.537 11.3436 96.5541 11.5654 96.522 11.7827V14.6977H95.6333V12.0059C95.6333 11.2823 95.3189 10.9224 94.6616 10.9224C94.5129 10.9155 94.3644 10.9408 94.2263 10.9966C94.0883 11.0525 93.9639 11.1375 93.8618 11.2459C93.7597 11.3543 93.6822 11.4834 93.6346 11.6246C93.5871 11.7657 93.5707 11.9154 93.5864 12.0635V14.6978H92.6978V10.1949Z" fill="white"/>
<path d="M101.543 9.07373V10.2153H102.519V10.9639H101.543V13.2793C101.543 13.751 101.738 13.9575 102.18 13.9575C102.293 13.9572 102.407 13.9503 102.519 13.937V14.6772C102.359 14.7058 102.198 14.721 102.036 14.7226C101.047 14.7226 100.654 14.375 100.654 13.5068V10.9638H99.939V10.2153H100.654V9.07373H101.543Z" fill="white"/>
<path d="M103.733 8.43701H104.614V10.9185H104.684C104.802 10.6591 104.997 10.4425 105.243 10.2982C105.489 10.1539 105.773 10.0888 106.057 10.1118C106.275 10.1 106.493 10.1364 106.695 10.2184C106.897 10.3004 107.079 10.4261 107.227 10.5864C107.375 10.7468 107.486 10.9378 107.552 11.146C107.618 11.3541 107.637 11.5742 107.608 11.7905V14.6978H106.718V12.0098C106.718 11.2905 106.383 10.9263 105.755 10.9263C105.603 10.9137 105.449 10.9347 105.305 10.9878C105.161 11.0408 105.031 11.1247 104.923 11.2334C104.815 11.3421 104.732 11.4732 104.68 11.6173C104.628 11.7614 104.608 11.9152 104.622 12.0679V14.6977H103.733L103.733 8.43701Z" fill="white"/>
<path d="M112.79 13.482C112.669 13.8935 112.407 14.2495 112.051 14.4877C111.694 14.7258 111.265 14.831 110.839 14.7847C110.542 14.7926 110.247 14.7357 109.975 14.6182C109.702 14.5007 109.458 14.3253 109.26 14.1041C109.063 13.883 108.915 13.6214 108.828 13.3376C108.742 13.0538 108.718 12.7545 108.758 12.4605C108.719 12.1656 108.743 11.8657 108.83 11.581C108.916 11.2964 109.063 11.0336 109.26 10.8105C109.457 10.5874 109.699 10.4093 109.971 10.2881C110.243 10.1669 110.537 10.1054 110.835 10.108C112.088 10.108 112.843 10.964 112.843 12.378V12.6881H109.664V12.7379C109.65 12.9031 109.671 13.0695 109.725 13.2262C109.779 13.383 109.865 13.5267 109.978 13.6481C110.091 13.7696 110.228 13.8661 110.38 13.9315C110.533 13.9969 110.697 14.0297 110.863 14.0279C111.076 14.0534 111.291 14.0151 111.482 13.9179C111.672 13.8207 111.83 13.669 111.934 13.482L112.79 13.482ZM109.664 12.0308H111.938C111.949 11.8797 111.929 11.7279 111.878 11.5852C111.827 11.4425 111.747 11.312 111.642 11.2021C111.538 11.0923 111.412 11.0055 111.272 10.9473C111.132 10.8891 110.981 10.8609 110.83 10.8643C110.676 10.8624 110.523 10.8913 110.381 10.9492C110.239 11.0072 110.109 11.093 110.001 11.2017C109.892 11.3104 109.806 11.4398 109.748 11.5822C109.691 11.7246 109.662 11.8771 109.664 12.0308H109.664Z" fill="white"/>
</svg>
