<svg width="511" height="280" viewBox="0 0 511 280" fill="none" xmlns="http://www.w3.org/2000/svg">
<path opacity="0.05" d="M682.714 285.857C564.898 201.219 402.534 300.124 273.857 233.143C206.907 198.293 193.329 166.845 145.286 114.857C114.47 81.512 111.533 75.707 82.2857 51.8571C53.0382 28.0073 0 0.428574 0 0.428574V-87H1384.71V495.429H1054.29C1054.29 495.429 877.801 498.178 793.286 426C741.883 382.101 743.025 329.184 682.714 285.857Z" fill="white"/>
<path opacity="0.05" d="M730.285 257.857C612.469 173.219 450.104 293.981 321.427 227C254.477 192.15 219.428 68.6428 199.928 32.1428C189.243 12.1428 172.928 -5.85718 146.428 -19.8572C119.928 -33.8572 47.5703 -27.5714 47.5703 -27.5714V-115H1432.28V430.857H1122.43C1122.43 430.857 905.142 437.857 834.427 387.714C772.713 343.953 790.595 301.184 730.285 257.857Z" fill="white"/>
</svg>
