<svg width="135" height="40" viewBox="0 0 135 40" fill="none" xmlns="http://www.w3.org/2000/svg">
<path d="M130 0H5C2.23858 0 0 2.23858 0 5V35C0 37.7614 2.23858 40 5 40H130C132.761 40 135 37.7614 135 35V5C135 2.23858 132.761 0 130 0Z" fill="#152026"/>
<path d="M47.4183 10.2432C47.4365 10.6101 47.3798 10.9769 47.2517 11.3212C47.1236 11.6655 46.9267 11.9802 46.6731 12.246C46.3889 12.5407 46.0456 12.7722 45.6658 12.9251C45.286 13.0781 44.8782 13.1492 44.469 13.1337C44.0572 13.1373 43.6488 13.0587 43.2679 12.9023C42.887 12.7459 42.5411 12.515 42.2507 12.223C41.9603 11.9311 41.7312 11.584 41.5768 11.2023C41.4225 10.8205 41.346 10.4117 41.3519 10C41.346 9.58825 41.4225 9.17949 41.5769 8.79772C41.7313 8.41596 41.9604 8.06889 42.2508 7.77691C42.5412 7.48493 42.887 7.25393 43.2679 7.09747C43.6488 6.94102 44.0572 6.86226 44.469 6.86584C44.8924 6.86456 45.3115 6.95015 45.7005 7.11733C46.0618 7.26376 46.3833 7.49346 46.639 7.7877L46.1116 8.31547C45.9106 8.07894 45.658 7.89173 45.3732 7.7683C45.0884 7.64488 44.779 7.58853 44.469 7.60361C44.1569 7.60199 43.8477 7.66338 43.5599 7.78408C43.2721 7.90479 43.0116 8.08233 42.7941 8.30608C42.5765 8.52983 42.4064 8.79518 42.2938 9.08625C42.1813 9.37731 42.1286 9.6881 42.139 10C42.1315 10.4672 42.263 10.926 42.5167 11.3184C42.7704 11.7108 43.1349 12.019 43.564 12.2039C43.9931 12.3888 44.4675 12.4422 44.9269 12.3572C45.3864 12.2722 45.8103 12.0527 46.1448 11.7265C46.4527 11.3948 46.6312 10.9635 46.6477 10.5112H44.469V9.79051H47.3763C47.4038 9.93984 47.4179 10.0913 47.4183 10.2432Z" fill="white" stroke="white" stroke-width="0.2" stroke-miterlimit="10"/>
<path d="M52.0278 7.7373H49.2954V9.6396H51.7593V10.3604H49.2954V12.2627H52.0278V13H48.5249V7H52.0278V7.7373Z" fill="white" stroke="white" stroke-width="0.2" stroke-miterlimit="10"/>
<path d="M55.2788 13H54.5073V7.7373H52.8315V7H56.9546V7.7373H55.2788V13Z" fill="white" stroke="white" stroke-width="0.2" stroke-miterlimit="10"/>
<path d="M59.938 13V7H60.7085V13H59.938Z" fill="white" stroke="white" stroke-width="0.2" stroke-miterlimit="10"/>
<path d="M64.1284 13H63.3569V7.7373H61.6812V7H65.8042V7.7373H64.1284V13Z" fill="white" stroke="white" stroke-width="0.2" stroke-miterlimit="10"/>
<path d="M73.6092 12.2246C73.0252 12.8069 72.2341 13.1338 71.4095 13.1338C70.5848 13.1338 69.7938 12.8069 69.2098 12.2246C68.9209 11.932 68.6937 11.5843 68.5419 11.2021C68.3901 10.8199 68.3167 10.4111 68.326 10C68.3167 9.58891 68.3901 9.18011 68.5419 8.79795C68.6937 8.41578 68.9209 8.06805 69.2098 7.77542C69.4984 7.48669 69.8412 7.25772 70.2185 7.10162C70.5957 6.94552 71.0001 6.86536 71.4083 6.86572C71.8166 6.86609 72.2208 6.94697 72.5978 7.10373C72.9748 7.2605 73.3171 7.49008 73.6053 7.77932C73.8944 8.07118 74.122 8.41814 74.2744 8.79961C74.4269 9.18107 74.5013 9.58929 74.493 10C74.5021 10.4111 74.4285 10.8198 74.2767 11.202C74.1249 11.5841 73.8979 11.9318 73.6092 12.2246ZM69.7791 11.7222C70.2116 12.154 70.7978 12.3965 71.409 12.3965C72.0202 12.3965 72.6064 12.154 73.0389 11.7222C73.2607 11.4951 73.4341 11.2255 73.5488 10.9294C73.6634 10.6334 73.7169 10.3173 73.7059 10C73.7169 9.68278 73.6634 9.36661 73.5488 9.0706C73.4341 8.7746 73.2607 8.5049 73.0389 8.27782C72.6064 7.84603 72.0202 7.60351 71.409 7.60351C70.7978 7.60351 70.2116 7.84603 69.7791 8.27782C69.5576 8.50508 69.3844 8.77483 69.2699 9.07081C69.1555 9.36679 69.1021 9.68287 69.1131 10C69.1021 10.3172 69.1555 10.6333 69.2699 10.9292C69.3844 11.2252 69.5576 11.495 69.7791 11.7222Z" fill="white" stroke="white" stroke-width="0.2" stroke-miterlimit="10"/>
<path d="M75.5752 13V7H76.5137L79.4297 11.6675H79.4629L79.4297 10.5112V7H80.2012V13H79.3965L76.3457 8.1064H76.3125L76.3457 9.2627V13H75.5752Z" fill="white" stroke="white" stroke-width="0.2" stroke-miterlimit="10"/>
<path d="M68.1359 21.7515C67.2954 21.7547 66.4747 22.0068 65.7773 22.4761C65.08 22.9454 64.5374 23.6108 64.218 24.3882C63.8985 25.1657 63.8166 26.0204 63.9825 26.8444C64.1485 27.6683 64.5548 28.4247 65.1503 29.0179C65.7457 29.6111 66.5036 30.0146 67.3282 30.1774C68.1528 30.3402 69.0072 30.255 69.7834 29.9326C70.5596 29.6102 71.2229 29.065 71.6895 28.3659C72.1562 27.6669 72.4052 26.8452 72.4052 26.0046C72.4134 25.4425 72.3085 24.8844 72.0967 24.3635C71.8849 23.8427 71.5704 23.3699 71.1721 22.973C70.7738 22.5762 70.2997 22.2636 69.7781 22.0537C69.2565 21.8439 68.698 21.7411 68.1359 21.7515ZM68.1359 28.5824C67.6183 28.6193 67.1015 28.4995 66.6529 28.2386C66.2043 27.9777 65.8447 27.5878 65.6208 27.1196C65.3969 26.6515 65.3191 26.1268 65.3976 25.6138C65.4761 25.1008 65.7073 24.6234 66.0609 24.2436C66.4146 23.8638 66.8744 23.5993 67.3804 23.4845C67.8865 23.3697 68.4155 23.4099 68.8983 23.6C69.3812 23.79 69.7957 24.121 70.0879 24.5499C70.38 24.9788 70.5363 25.4857 70.5363 26.0046C70.552 26.3325 70.502 26.6602 70.3891 26.9684C70.2763 27.2766 70.1029 27.5591 69.8792 27.7993C69.6556 28.0395 69.3861 28.2325 69.0867 28.367C68.7873 28.5015 68.464 28.5747 68.1359 28.5824ZM58.8225 21.7515C57.982 21.7547 57.1612 22.0068 56.4639 22.4761C55.7666 22.9454 55.2239 23.6107 54.9045 24.3882C54.585 25.1656 54.5031 26.0203 54.669 26.8443C54.8349 27.6683 55.2413 28.4246 55.8367 29.0179C56.4322 29.6111 57.1901 30.0146 58.0147 30.1774C58.8393 30.3402 59.6936 30.255 60.4699 29.9326C61.2461 29.6102 61.9094 29.0651 62.376 28.366C62.8427 27.6669 63.0917 26.8452 63.0917 26.0046C63.0999 25.4425 62.995 24.8844 62.7832 24.3636C62.5714 23.8428 62.257 23.3699 61.8587 22.9731C61.4603 22.5763 60.9863 22.2636 60.4647 22.0538C59.9431 21.8439 59.3846 21.7411 58.8225 21.7515ZM58.8225 28.5824C58.3049 28.6193 57.7881 28.4995 57.3395 28.2386C56.8909 27.9777 56.5313 27.5878 56.3074 27.1196C56.0835 26.6515 56.0057 26.1268 56.0842 25.6138C56.1627 25.1008 56.3939 24.6234 56.7475 24.2436C57.1012 23.8638 57.561 23.5993 58.067 23.4845C58.5731 23.3697 59.102 23.4099 59.5849 23.6C60.0678 23.79 60.4823 24.121 60.7745 24.5499C61.0666 24.9788 61.2229 25.4857 61.2229 26.0046C61.2386 26.3325 61.1886 26.6602 61.0757 26.9684C60.9629 27.2766 60.7895 27.5591 60.5659 27.7993C60.3422 28.0395 60.0727 28.2325 59.7733 28.367C59.4739 28.5015 59.1506 28.5747 58.8225 28.5824ZM47.7437 23.0565V24.8608H52.0614C51.9991 25.7071 51.6528 26.5076 51.0786 27.1325C50.6459 27.5735 50.1256 27.9189 49.5511 28.1465C48.9767 28.374 48.361 28.4786 47.7437 28.4535C46.4817 28.4364 45.2771 27.923 44.3907 27.0246C43.5043 26.1261 43.0073 24.9147 43.0073 23.6525C43.0073 22.3904 43.5043 21.179 44.3907 20.2805C45.2771 19.382 46.4817 18.8687 47.7437 18.8516C48.9559 18.8357 50.1254 19.2989 50.9981 20.1404L52.2708 18.8677C51.6753 18.2782 50.9682 17.8135 50.1908 17.5009C49.4134 17.1883 48.5815 17.034 47.7437 17.0472C46.8682 17.0344 45.9988 17.1958 45.1863 17.5221C44.3737 17.8483 43.6341 18.3328 43.0105 18.9475C42.3868 19.5621 41.8916 20.2946 41.5536 21.1023C41.2156 21.91 41.0415 22.7769 41.0415 23.6525C41.0415 24.5281 41.2156 25.395 41.5536 26.2027C41.8916 27.0105 42.3868 27.743 43.0105 28.3576C43.6341 28.9722 44.3737 29.4567 45.1863 29.783C45.9988 30.1092 46.8682 30.2706 47.7437 30.2579C48.5991 30.2934 49.4524 30.1465 50.2467 29.8271C51.0411 29.5077 51.7585 29.023 52.3513 28.4052C53.4037 27.2564 53.9646 25.7414 53.9141 24.1842C53.9182 23.8061 53.8858 23.4284 53.8173 23.0565H47.7437ZM93.052 24.458C92.7964 23.6877 92.3098 23.0146 91.6584 22.5304C91.007 22.0462 90.2223 21.7742 89.411 21.7515C88.8645 21.7549 88.3244 21.8691 87.8233 22.0871C87.3222 22.3051 86.8706 22.6225 86.4956 23.0201C86.1207 23.4176 85.8302 23.8871 85.6418 24.4001C85.4534 24.9131 85.371 25.4589 85.3996 26.0046C85.3873 26.5638 85.4878 27.1198 85.6951 27.6392C85.9025 28.1587 86.2124 28.631 86.6064 29.028C87.0004 29.4251 87.4704 29.7386 87.9882 29.9499C88.5061 30.1612 89.0612 30.2659 89.6205 30.2579C90.3211 30.2618 91.0118 30.0916 91.6304 29.7626C92.249 29.4336 92.7762 28.9561 93.1647 28.373L91.7148 27.4064C91.4976 27.7671 91.1903 28.0652 90.8232 28.2713C90.456 28.4775 90.0416 28.5847 89.6205 28.5824C89.1872 28.5989 88.7589 28.4849 88.3912 28.2551C88.0235 28.0253 87.7333 27.6903 87.5583 27.2936L93.2454 24.9414L93.052 24.458ZM87.2523 25.8758C87.2323 25.5663 87.2742 25.2558 87.3756 24.9627C87.477 24.6695 87.6358 24.3995 87.8428 24.1685C88.0499 23.9375 88.3009 23.75 88.5812 23.6172C88.8615 23.4843 89.1655 23.4088 89.4754 23.3948C89.7981 23.3736 90.1199 23.4478 90.4007 23.6083C90.6814 23.7687 90.9088 24.0082 91.0543 24.297L87.2523 25.8758ZM82.6285 30.0001H84.4973V17.4984H82.6285V30.0001ZM79.5675 22.702H79.5031C79.219 22.3933 78.8722 22.1488 78.486 21.9849C78.0998 21.821 77.6831 21.7414 77.2637 21.7515C76.167 21.7982 75.1307 22.2667 74.3712 23.0592C73.6117 23.8517 73.1877 24.907 73.1877 26.0047C73.1877 27.1024 73.6117 28.1577 74.3712 28.9502C75.1307 29.7427 76.167 30.2112 77.2637 30.2579C77.6848 30.2691 78.1032 30.1884 78.49 30.0215C78.8767 29.8546 79.2224 29.6054 79.5031 29.2913H79.5675V29.9035C79.5675 31.5307 78.6976 32.4006 77.2959 32.4006C76.8288 32.3894 76.3755 32.2394 75.9939 31.9697C75.6124 31.7 75.3197 31.3228 75.1533 30.8862L73.5261 31.5629C73.8328 32.3096 74.3554 32.9477 75.027 33.3954C75.6987 33.8432 76.4887 34.0802 77.2959 34.0761C79.487 34.0761 81.3397 32.7873 81.3397 29.6457V22.0092H79.5675V22.702ZM77.4249 28.5824C76.779 28.5276 76.1771 28.2323 75.7385 27.7549C75.2999 27.2776 75.0566 26.653 75.0566 26.0047C75.0566 25.3564 75.2999 24.7318 75.7385 24.2544C76.1771 23.7771 76.779 23.4818 77.4249 23.427C77.7462 23.4427 78.0612 23.5229 78.3508 23.6629C78.6405 23.8029 78.8991 23.9998 79.111 24.2419C79.323 24.4839 79.4841 24.7661 79.5846 25.0718C79.6852 25.3774 79.7232 25.7001 79.6964 26.0207C79.7215 26.3394 79.6821 26.6598 79.5806 26.9629C79.479 27.2659 79.3173 27.5454 79.1053 27.7845C78.8932 28.0237 78.6351 28.2176 78.3464 28.3547C78.0577 28.4918 77.7442 28.5692 77.4249 28.5824ZM101.806 17.4986H97.3347V30.0001H99.2004V25.2636H101.806C102.334 25.2926 102.862 25.2136 103.358 25.0316C103.854 24.8495 104.308 24.5682 104.692 24.2048C105.076 23.8415 105.381 23.4037 105.59 22.9182C105.799 22.4327 105.907 21.9097 105.907 21.3811C105.907 20.8526 105.799 20.3295 105.59 19.844C105.381 19.3585 105.076 18.9207 104.692 18.5574C104.308 18.194 103.854 17.9127 103.358 17.7306C102.862 17.5486 102.334 17.4696 101.806 17.4986ZM101.854 23.5238H99.2004V19.2385H101.854C102.139 19.2326 102.423 19.2836 102.688 19.3887C102.953 19.4937 103.194 19.6506 103.398 19.8501C103.602 20.0497 103.764 20.2879 103.874 20.5508C103.985 20.8137 104.042 21.096 104.042 21.3812C104.042 21.6663 103.985 21.9486 103.874 22.2115C103.764 22.4744 103.602 22.7126 103.398 22.9122C103.194 23.1117 102.953 23.2686 102.688 23.3737C102.423 23.4787 102.139 23.5297 101.854 23.5238ZM113.386 21.7285C112.705 21.6887 112.027 21.8487 111.436 22.1887C110.844 22.5286 110.365 23.0339 110.057 23.6424L111.713 24.334C111.877 24.032 112.126 23.7844 112.429 23.6216C112.732 23.4587 113.075 23.3877 113.418 23.4172C113.891 23.371 114.364 23.5144 114.731 23.8158C115.099 24.1173 115.333 24.5523 115.38 25.0255V25.1542C114.781 24.8359 114.113 24.6702 113.434 24.6717C111.649 24.6717 109.831 25.6528 109.831 27.4864C109.849 27.8728 109.944 28.2518 110.11 28.6008C110.277 28.9499 110.512 29.262 110.801 29.5185C111.091 29.775 111.429 29.9707 111.795 30.0941C112.162 30.2174 112.55 30.2659 112.935 30.2366C113.405 30.2642 113.874 30.1654 114.293 29.9505C114.711 29.7355 115.065 29.4122 115.316 29.0143H115.38V29.9793H117.181V25.1864C117.181 22.9669 115.525 21.7285 113.386 21.7285ZM113.161 28.58C112.549 28.58 111.697 28.2745 111.697 27.5185C111.697 26.5536 112.759 26.1835 113.675 26.1835C114.271 26.1677 114.86 26.3121 115.38 26.6018C115.312 27.144 115.049 27.6431 114.641 28.0067C114.233 28.3704 113.707 28.574 113.161 28.58ZM123.743 22.0019L121.604 27.422H121.54L119.321 22.0019H117.31L120.639 29.5772L118.742 33.791H120.688L125.818 22.0019H123.743ZM106.936 30.0001H108.802V17.4986H106.936V30.0001Z" fill="white"/>
<path d="M10.4352 7.53793C10.1073 7.93001 9.9417 8.43264 9.97238 8.94284V31.0591C9.94161 31.5693 10.1072 32.072 10.4352 32.464L10.5092 32.5361L22.8982 20.1471V19.8548L10.5092 7.46533L10.4352 7.53793Z" fill="url(#paint0_linear_204_1824)"/>
<path d="M27.0278 24.2787L22.8984 20.1473V19.855L27.0288 15.7246L27.1219 15.7777L32.0147 18.5578C33.4123 19.3518 33.4123 20.651 32.0147 21.4455L27.1219 24.2256L27.0278 24.2787Z" fill="url(#paint1_linear_204_1824)"/>
<path d="M27.1216 24.2249L22.8981 20.001L10.4351 32.4639C10.7198 32.715 11.0835 32.8587 11.463 32.8699C11.8426 32.8811 12.2141 32.7592 12.5132 32.5253L27.1216 24.2249Z" fill="url(#paint2_linear_204_1824)"/>
<path d="M27.1216 15.7771L12.5132 7.47666C12.2141 7.24275 11.8426 7.12084 11.463 7.13206C11.0835 7.14327 10.7198 7.2869 10.4351 7.53806L22.8981 20.0011L27.1216 15.7771Z" fill="url(#paint3_linear_204_1824)"/>
<path opacity="0.2" d="M27.0285 24.1318L12.5132 32.3791C12.2256 32.5981 11.8746 32.7175 11.5131 32.7194C11.1517 32.7214 10.7995 32.6057 10.5096 32.3898L10.4351 32.4643L10.5091 32.5364L10.5096 32.5359C10.7994 32.7519 11.1517 32.8677 11.5131 32.8657C11.8746 32.8638 12.2256 32.7443 12.5132 32.5252L27.1216 24.2248L27.0285 24.1318Z" fill="#152026"/>
<path opacity="0.12" d="M10.4351 32.3183C10.1073 31.9262 9.94171 31.4237 9.97236 30.9136V31.0597C9.94169 31.5698 10.1073 32.0723 10.4351 32.4644L10.5096 32.3899L10.4351 32.3183Z" fill="#152026"/>
<path opacity="0.12" d="M32.0147 21.2988L27.0288 24.1321L27.1219 24.2251L32.0147 21.4449C32.3025 21.32 32.5516 21.1202 32.7359 20.8663C32.9203 20.6125 33.0332 20.3138 33.063 20.0015C33.0011 20.2843 32.8742 20.5489 32.6922 20.7741C32.5102 20.9993 32.2782 21.1789 32.0147 21.2988Z" fill="#152026"/>
<path opacity="0.25" d="M12.5135 7.62334L32.0147 18.7032C32.2783 18.823 32.5104 19.0028 32.6924 19.2281C32.8744 19.4534 33.0013 19.718 33.063 20.001C33.0335 19.6885 32.9206 19.3897 32.7362 19.1357C32.5518 18.8818 32.3026 18.6819 32.0147 18.5571L12.5135 7.47724C11.116 6.68315 9.97266 7.34274 9.97266 8.94352V9.08962C9.97266 7.48894 11.116 6.82935 12.5135 7.62334Z" fill="white"/>
<defs>
<linearGradient id="paint0_linear_204_1824" x1="21.7995" y1="8.70965" x2="5.01699" y2="25.4921" gradientUnits="userSpaceOnUse">
<stop stop-color="#00A0FF"/>
<stop offset="0.00657" stop-color="#00A1FF"/>
<stop offset="0.2601" stop-color="#00BEFF"/>
<stop offset="0.5122" stop-color="#00D2FF"/>
<stop offset="0.7604" stop-color="#00DFFF"/>
<stop offset="1" stop-color="#00E3FF"/>
</linearGradient>
<linearGradient id="paint1_linear_204_1824" x1="33.8344" y1="20.0017" x2="9.63752" y2="20.0017" gradientUnits="userSpaceOnUse">
<stop stop-color="#FFE000"/>
<stop offset="0.4087" stop-color="#FFBD00"/>
<stop offset="0.7754" stop-color="#FFA500"/>
<stop offset="1" stop-color="#FF9C00"/>
</linearGradient>
<linearGradient id="paint2_linear_204_1824" x1="24.8266" y1="22.2961" x2="2.06833" y2="45.0544" gradientUnits="userSpaceOnUse">
<stop stop-color="#FF3A44"/>
<stop offset="1" stop-color="#C31162"/>
</linearGradient>
<linearGradient id="paint3_linear_204_1824" x1="7.29699" y1="0.176237" x2="17.4595" y2="10.3388" gradientUnits="userSpaceOnUse">
<stop stop-color="#32A071"/>
<stop offset="0.0685" stop-color="#2DA771"/>
<stop offset="0.4762" stop-color="#15CF74"/>
<stop offset="0.8009" stop-color="#06E775"/>
<stop offset="1" stop-color="#00F076"/>
</linearGradient>
</defs>
</svg>
