<svg xmlns="http://www.w3.org/2000/svg" width="105" height="30" fill="none"><path fill="#fff" d="M46.18 9.04V23h-2.8V9.04h2.8Zm7.586 14.1c-.973 0-1.853-.167-2.64-.5-.773-.333-1.386-.813-1.84-1.44-.453-.627-.686-1.367-.7-2.22h3c.04.573.24 1.027.6 1.36.374.333.88.5 1.52.5.654 0 1.167-.153 1.54-.46.374-.32.56-.733.56-1.24 0-.413-.126-.753-.38-1.02a2.544 2.544 0 0 0-.96-.62c-.373-.16-.893-.333-1.56-.52-.906-.267-1.646-.527-2.22-.78a4.115 4.115 0 0 1-1.46-1.18c-.4-.533-.6-1.24-.6-2.12 0-.827.207-1.547.62-2.16.414-.613.994-1.08 1.74-1.4.747-.333 1.6-.5 2.56-.5 1.44 0 2.607.353 3.5 1.06.907.693 1.407 1.667 1.5 2.92h-3.08a1.558 1.558 0 0 0-.62-1.18c-.373-.32-.873-.48-1.5-.48-.546 0-.986.14-1.32.42-.32.28-.48.687-.48 1.22 0 .373.12.687.36.94.254.24.56.44.92.6.374.147.894.32 1.56.52.907.267 1.647.533 2.22.8a3.987 3.987 0 0 1 1.48 1.2c.414.533.62 1.233.62 2.1a3.95 3.95 0 0 1-.58 2.08c-.386.64-.953 1.153-1.7 1.54-.746.373-1.633.56-2.66.56Zm16.868-14.1v2.26h-3.72V23h-2.8V11.3h-3.72V9.04h10.24Zm10.603 11.3h-5.56l-.92 2.66h-2.94l5.02-13.98h3.26L85.117 23h-2.96l-.92-2.66Zm-.76-2.24-2.02-5.84-2.02 5.84h4.04Zm9.316-9.06V23h-2.8V9.04h2.8ZM100.92 23l-3.02-4.7-2.74 4.7H92l4.4-7.04-4.46-6.92h3.22l3.02 4.68 2.72-4.68h3.16l-4.38 7.02 4.46 6.94h-3.22Z"/><path stroke="#E4E3E8" stroke-width="6" d="M3 21.5V3h16.5v18.5"/><path stroke="#E4E3E8" stroke-width="6" d="M27.5 8v18.5H11V8"/></svg>