<svg xmlns="http://www.w3.org/2000/svg" width="168" height="38" fill="none"><path fill="#263640" d="M62.688 26.126c-.924 0-1.752-.15-2.484-.45-.732-.3-1.32-.744-1.764-1.332-.432-.588-.66-1.296-.684-2.124h3.276c.048.468.21.828.486 1.08.276.24.636.36 1.08.36.456 0 .816-.102 1.08-.306.264-.216.396-.51.396-.882 0-.312-.108-.57-.324-.774a2.403 2.403 0 0 0-.774-.504c-.3-.132-.732-.282-1.296-.45-.816-.252-1.482-.504-1.998-.756a3.692 3.692 0 0 1-1.332-1.116c-.372-.492-.558-1.134-.558-1.926 0-1.176.426-2.094 1.278-2.754.852-.672 1.962-1.008 3.33-1.008 1.392 0 2.514.336 3.366 1.008.852.66 1.308 1.584 1.368 2.772h-3.33c-.024-.408-.174-.726-.45-.954-.276-.24-.63-.36-1.062-.36-.372 0-.672.102-.9.306-.228.192-.342.474-.342.846 0 .408.192.726.576.954.384.228.984.474 1.8.738.816.276 1.476.54 1.98.792.516.252.96.618 1.332 1.098.372.48.558 1.098.558 1.854 0 .72-.186 1.374-.558 1.962-.36.588-.888 1.056-1.584 1.404-.696.348-1.518.522-2.466.522Zm28.732-8.694a4.12 4.12 0 0 1-.504 2.016c-.336.6-.852 1.086-1.548 1.458-.696.372-1.56.558-2.592.558h-1.908V26H81.79V13.364h4.986c1.008 0 1.86.174 2.556.522.696.348 1.218.828 1.566 1.44.348.612.522 1.314.522 2.106Zm-4.878 1.584c.588 0 1.026-.138 1.314-.414.288-.276.432-.666.432-1.17 0-.504-.144-.894-.432-1.17-.288-.276-.726-.414-1.314-.414h-1.674v3.168h1.674Zm26.947 4.752h-4.716L108.017 26h-3.222l4.572-12.636h3.564L117.503 26h-3.258l-.756-2.232Zm-.792-2.376-1.566-4.626-1.548 4.626h3.114ZM137.938 26l-2.628-4.77h-.738V26h-3.078V13.364h5.166c.996 0 1.842.174 2.538.522.708.348 1.236.828 1.584 1.44.348.6.522 1.272.522 2.016 0 .84-.24 1.59-.72 2.25-.468.66-1.164 1.128-2.088 1.404L141.412 26h-3.474Zm-3.366-6.948h1.908c.564 0 .984-.138 1.26-.414.288-.276.432-.666.432-1.17 0-.48-.144-.858-.432-1.134-.276-.276-.696-.414-1.26-.414h-1.908v3.132ZM163.162 26l-4.248-5.58V26h-3.078V13.364h3.078v5.544l4.212-5.544h3.618l-4.896 6.192L166.924 26h-3.762Z"/><path fill="#263640" fill-rule="evenodd" d="m27.3 14.956 7.848.023-12.844 22.038H8.546L0 22.351c2.772.214 6.036.739 7.918 2.094 1.934 1.394 3.513 4.054 4.704 6.081l2.734 4.632 4.457-7.359L27.3 14.956Z" clip-rule="evenodd"/><path fill="#263640" fill-rule="evenodd" d="m15.7 22.06-7.848-.022L20.695 0h13.76L43 14.665c-2.772-.214-6.036-.739-7.918-2.095-1.934-1.394-3.513-4.053-4.704-6.08l-2.735-4.633-4.456 7.36L15.7 22.06Z" clip-rule="evenodd"/></svg>