<svg xmlns="http://www.w3.org/2000/svg" width="169" height="37" fill="none"><path fill="#263640" d="M62.194 23.624h4.032V26h-7.11V13.364h3.078v10.26Zm24.076 2.502a6.645 6.645 0 0 1-3.276-.828 6.295 6.295 0 0 1-2.358-2.304c-.576-.996-.864-2.112-.864-3.348 0-1.236.288-2.346.864-3.33a6.295 6.295 0 0 1 2.358-2.304 6.645 6.645 0 0 1 3.276-.828c1.188 0 2.274.276 3.258.828a5.999 5.999 0 0 1 2.34 2.304c.576.984.864 2.094.864 3.33 0 1.236-.288 2.352-.864 3.348a6.162 6.162 0 0 1-2.34 2.304c-.984.552-2.07.828-3.258.828Zm0-2.808c1.008 0 1.812-.336 2.412-1.008.612-.672.918-1.56.918-2.664 0-1.116-.306-2.004-.918-2.664-.6-.672-1.404-1.008-2.412-1.008-1.02 0-1.836.33-2.448.99-.6.66-.9 1.554-.9 2.682 0 1.116.3 2.01.9 2.682.612.66 1.428.99 2.448.99Zm29.163-5.958a2.238 2.238 0 0 0-.99-.954c-.42-.228-.918-.342-1.494-.342-.996 0-1.794.33-2.394.99-.6.648-.9 1.518-.9 2.61 0 1.164.312 2.076.936 2.736.636.648 1.506.972 2.61.972.756 0 1.392-.192 1.908-.576.528-.384.912-.936 1.152-1.656h-3.906v-2.268h6.696v2.862a5.969 5.969 0 0 1-1.17 2.142c-.54.66-1.23 1.194-2.07 1.602-.84.408-1.788.612-2.844.612-1.248 0-2.364-.27-3.348-.81a5.977 5.977 0 0 1-2.286-2.286c-.54-.972-.81-2.082-.81-3.33 0-1.248.27-2.358.81-3.33a5.817 5.817 0 0 1 2.286-2.286c.972-.552 2.082-.828 3.33-.828 1.512 0 2.784.366 3.816 1.098 1.044.732 1.734 1.746 2.07 3.042h-3.402Zm25.788 6.408h-4.716L135.749 26h-3.222l4.572-12.636h3.564L145.235 26h-3.258l-.756-2.232Zm-.792-2.376-1.566-4.626-1.548 4.626h3.114Zm22.074 2.088h5.436V26h-8.928v-2.34l5.4-7.776h-5.4v-2.52h8.928v2.34l-5.436 7.776Z"/><path fill="#263640" fill-rule="evenodd" d="M19.36 12.897v18.182h9.345c4.75 0 7.57-2.167 7.57-6.13v-.107c0-3.752-2.924-6.184-7.518-6.184H23.39l4.01-5.761L36.38 0H44l-9.866 14.008c5.064 1.478 8.666 5.126 8.666 11.204v.107c0 3.223-1.097 5.972-3.028 7.98-2.35 2.326-5.951 3.7-10.545 3.7H12.941V9.19h6.42v3.708ZM0 0h31.544L27.42 5.92h-21V37H0V0Z" clip-rule="evenodd"/></svg>