<svg xmlns="http://www.w3.org/2000/svg" width="160" height="37" fill="none"><path fill="#263640" d="M51.688 25.126c-.924 0-1.752-.15-2.484-.45-.732-.3-1.32-.744-1.764-1.332-.432-.588-.66-1.296-.684-2.124h3.276c.048.468.21.828.486 1.08.276.24.636.36 1.08.36.456 0 .816-.102 1.08-.306.264-.216.396-.51.396-.882 0-.312-.108-.57-.324-.774a2.403 2.403 0 0 0-.774-.504c-.3-.132-.732-.282-1.296-.45-.816-.252-1.482-.504-1.998-.756a3.692 3.692 0 0 1-1.332-1.116c-.372-.492-.558-1.134-.558-1.926 0-1.176.426-2.094 1.278-2.754.852-.672 1.962-1.008 3.33-1.008 1.392 0 2.514.336 3.366 1.008.852.66 1.308 1.584 1.368 2.772h-3.33c-.024-.408-.174-.726-.45-.954-.276-.24-.63-.36-1.062-.36-.372 0-.672.102-.9.306-.228.192-.342.474-.342.846 0 .408.192.726.576.954.384.228.984.474 1.8.738.816.276 1.476.54 1.98.792.516.252.96.618 1.332 1.098.372.48.558 1.098.558 1.854 0 .72-.186 1.374-.558 1.962-.36.588-.888 1.056-1.584 1.404-.696.348-1.518.522-2.466.522Zm28.732-8.694a4.12 4.12 0 0 1-.504 2.016c-.336.6-.852 1.086-1.548 1.458-.696.372-1.56.558-2.592.558h-1.908V25H70.79V12.364h4.986c1.008 0 1.86.174 2.556.522.696.348 1.218.828 1.566 1.44.348.612.522 1.314.522 2.106Zm-4.878 1.584c.588 0 1.026-.138 1.314-.414.288-.276.432-.666.432-1.17 0-.504-.144-.894-.432-1.17-.288-.276-.726-.414-1.314-.414h-1.674v3.168h1.674Zm25.057 7.11c-1.188 0-2.28-.276-3.276-.828a6.295 6.295 0 0 1-2.358-2.304c-.576-.996-.864-2.112-.864-3.348 0-1.236.288-2.346.864-3.33a6.295 6.295 0 0 1 2.358-2.304c.996-.552 2.088-.828 3.276-.828 1.188 0 2.274.276 3.258.828a5.999 5.999 0 0 1 2.34 2.304c.576.984.864 2.094.864 3.33 0 1.236-.288 2.352-.864 3.348a6.162 6.162 0 0 1-2.34 2.304c-.984.552-2.07.828-3.258.828Zm0-2.808c1.008 0 1.812-.336 2.412-1.008.612-.672.918-1.56.918-2.664 0-1.116-.306-2.004-.918-2.664-.6-.672-1.404-1.008-2.412-1.008-1.02 0-1.836.33-2.448.99-.6.66-.9 1.554-.9 2.682 0 1.116.3 2.01.9 2.682.612.66 1.428.99 2.448.99ZM132.677 25h-3.078l-5.148-7.794V25h-3.078V12.364h3.078l5.148 7.83v-7.83h3.078V25Zm22.697-2.232h-4.716L149.902 25h-3.222l4.572-12.636h3.564L159.388 25h-3.258l-.756-2.232Zm-.792-2.376-1.566-4.626-1.548 4.626h3.114Z"/><path fill="#263640" fill-rule="evenodd" d="m2.315 29.088 22.929-13.257V5.344L16 0 .001 9.25v5.245l16-9.25 2.393 1.383L0 17.262l.001 5.244 20.707-11.971v2.675L0 25.182v2.568l2.315 1.338Zm25.15-3.96h-.001l-5.732 3.313-5.731 3.315-2.395-1.385 6.93-4.005 6.928-4.005v2.767Zm0-8.012L4.534 30.372 16 37l16-9.25V9.25l-4.536-2.622v10.488Z" clip-rule="evenodd"/></svg>