<svg xmlns="http://www.w3.org/2000/svg" width="143" height="37" fill="none"><path fill="#263640" d="M67.092 25.126a6.645 6.645 0 0 1-3.276-.828 6.295 6.295 0 0 1-2.358-2.304c-.576-.996-.864-2.112-.864-3.348 0-1.236.288-2.346.864-3.33a6.295 6.295 0 0 1 2.358-2.304 6.645 6.645 0 0 1 3.276-.828c1.188 0 2.274.276 3.258.828a5.999 5.999 0 0 1 2.34 2.304c.576.984.864 2.094.864 3.33 0 1.236-.288 2.352-.864 3.348a6.162 6.162 0 0 1-2.34 2.304c-.984.552-2.07.828-3.258.828Zm0-2.808c1.008 0 1.812-.336 2.412-1.008.612-.672.918-1.56.918-2.664 0-1.116-.306-2.004-.918-2.664-.6-.672-1.404-1.008-2.412-1.008-1.02 0-1.836.33-2.448.99-.6.66-.9 1.554-.9 2.682 0 1.116.3 2.01.9 2.682.612.66 1.428.99 2.448.99Zm23.852.306h4.032V25h-7.11V12.364h3.078v10.26Zm21.179 0h4.032V25h-7.11V12.364h3.078v10.26Zm25.966.144h-4.716L132.617 25h-3.222l4.572-12.636h3.564L142.103 25h-3.258l-.756-2.232Zm-.792-2.376-1.566-4.626-1.548 4.626h3.114Z"/><path fill="#263640" fill-rule="evenodd" d="m23 22.843 13.911 14.156-13.91-7.079L9.089 37l13.912-14.157ZM23 0l23 37-23-23.408L0 37 23 0Z" clip-rule="evenodd"/></svg>