<svg xmlns="http://www.w3.org/2000/svg" width="67" height="66" fill="none"><path fill="#263640" d="M33.1 0C14.877 0 .1 14.777.1 33c0 18.222 14.777 33 33 33 18.222 0 33-14.778 33-33 0-18.223-14.778-33-33-33Z"/><path fill="#E6AF78" d="M39.622 34.03v-3.914H26.616v3.913c0 .671-.462 1.254-1.114 1.407L16.56 37.54a2.89 2.89 0 0 0-2.229 2.813v5.93a2.348 2.348 0 0 0 2.348 2.349h32.877a2.348 2.348 0 0 0 2.348-2.348v-5.93a2.89 2.89 0 0 0-2.228-2.814l-8.941-2.104a1.445 1.445 0 0 1-1.114-1.407Z"/><path fill="#FFD782" d="m49.677 37.54-7.489-1.763c-1.066 4.018-4.716 6.983-9.07 6.983-4.352 0-8.003-2.965-9.069-6.983l-7.488 1.762a2.89 2.89 0 0 0-2.229 2.814v5.93a2.348 2.348 0 0 0 2.348 2.348h32.877a2.348 2.348 0 0 0 2.348-2.348v-5.93a2.89 2.89 0 0 0-2.228-2.814Z"/><path fill="#D29B6E" d="M26.615 34.03c0 .485-.243.921-.624 1.185 8.572 4.295 13.63-4.198 13.63-4.198v-.9H26.615v3.912Z"/><path fill="#F0C087" d="m23.725 13.136.63 13.852a4.336 4.336 0 0 0 1.73 3.272l2.987 2.24c.75.563 1.663.867 2.601.867h2.89c.938 0 1.851-.304 2.602-.867l2.987-2.24a4.336 4.336 0 0 0 1.73-3.272l.63-13.852H23.725Z"/><path fill="#E6AF78" d="m23.725 13.136.63 13.852a4.336 4.336 0 0 0 1.73 3.272l2.987 2.24c.75.564 1.663.868 2.601.868h1.445c-2.167-.723-3.612-6.503-3.612-6.503l.079-7.053a1.178 1.178 0 0 1 1.013-1.15c3.814-.556 8.682-1.654 11.914-4.852v-.674H23.725Z"/><path fill="#5A4146" d="M22.28 12.413v.723l.723 7.948h1.445l1.445-4.335s9.393 0 14.451-2.89l1.446 7.225h1.445l.722-7.948v-.723a7.226 7.226 0 0 0-7.226-7.226h-7.225a7.225 7.225 0 0 0-7.226 7.226Z"/><path fill="#F0C087" d="m43.911 22.22-.816 3.264a.869.869 0 0 1-1.704-.103l-.418-3.338a1.496 1.496 0 0 1 1.484-1.682h.003c.973 0 1.687.915 1.451 1.859Z"/><path fill="#E6AF78" d="m22.326 22.22.816 3.264a.869.869 0 0 0 1.704-.103l.418-3.338a1.496 1.496 0 0 0-1.484-1.682h-.003c-.973 0-1.687.915-1.451 1.859Z"/><path fill="#FFC36E" d="m19.637 42.769-4.683-4.206a2.885 2.885 0 0 0-.622 1.79v5.93a2.348 2.348 0 0 0 2.348 2.35h4.155v-3.177a3.613 3.613 0 0 0-1.198-2.687ZM46.6 42.769l4.682-4.206c.393.496.623 1.121.623 1.79v5.93a2.348 2.348 0 0 1-2.348 2.35h-4.155v-3.177c0-1.025.436-2.002 1.198-2.687ZM42.187 35.778c-1.065 4.018-4.716 6.983-9.069 6.983-4.353 0-8.004-2.965-9.07-6.983l-2.28.537.011.065a11.746 11.746 0 0 0 11.34 8.73c5.312 0 9.975-3.59 11.338-8.73l.007-.066-2.277-.536Z"/><path fill="#FFD782" d="m27.46 55.324-2.393-.347-1.07-2.169a.483.483 0 0 0-.866 0l-.687 1.392 3.8 6.462a.472.472 0 0 0 .161-.443l-.409-2.383 1.732-1.688a.483.483 0 0 0-.268-.824ZM37.038 55.324l-2.393-.347-1.07-2.169a.483.483 0 0 0-.866 0l-.687 1.392 3.8 6.462a.472.472 0 0 0 .161-.443l-.408-2.383 1.731-1.688a.483.483 0 0 0-.268-.824ZM46.616 55.324l-2.393-.347-1.07-2.169a.483.483 0 0 0-.866 0L41.6 54.2l3.8 6.462a.472.472 0 0 0 .16-.443l-.408-2.383 1.732-1.688a.483.483 0 0 0-.268-.824Z"/><path fill="#FFCD78" d="m23.564 59.603-2.14 1.125a.483.483 0 0 1-.701-.509l.408-2.383-1.731-1.688a.483.483 0 0 1 .268-.824l2.392-.347 1.07-2.169a.483.483 0 0 1 .867 0l1.07 2.169 2.393.347a.483.483 0 0 1 .267.824l-1.731 1.688.409 2.383a.483.483 0 0 1-.701.51l-2.14-1.126Z"/><path fill="#fff" d="M25.163 55.64a1.017 1.017 0 0 1-.764-.764.026.026 0 0 0-.05 0 1.017 1.017 0 0 1-.764.763.026.026 0 0 0 0 .05c.38.087.677.385.764.764a.026.026 0 0 0 .05 0c.087-.379.385-.677.764-.763a.026.026 0 0 0 0-.05Z"/><path fill="#FFCD78" d="m33.142 59.603-2.14 1.125a.483.483 0 0 1-.701-.509l.408-2.383-1.731-1.688a.483.483 0 0 1 .268-.824l2.393-.347 1.07-2.169a.483.483 0 0 1 .866 0l1.07 2.169 2.393.347a.483.483 0 0 1 .268.824l-1.732 1.688.409 2.383a.483.483 0 0 1-.701.51l-2.14-1.126Z"/><path fill="#fff" d="M34.74 55.64a1.017 1.017 0 0 1-.763-.764.026.026 0 0 0-.05 0 1.017 1.017 0 0 1-.764.763.026.026 0 0 0 0 .05c.38.087.677.385.764.764a.026.026 0 0 0 .05 0c.087-.379.385-.677.764-.763a.026.026 0 0 0 0-.05Z"/><path fill="#FFCD78" d="m42.72 59.603-2.14 1.125a.483.483 0 0 1-.7-.509l.408-2.383-1.731-1.688a.483.483 0 0 1 .267-.824l2.393-.347 1.07-2.169a.483.483 0 0 1 .866 0l1.07 2.169 2.393.347a.483.483 0 0 1 .268.824l-1.731 1.688.408 2.383a.483.483 0 0 1-.7.51l-2.14-1.126Z"/><path fill="#fff" d="M44.319 55.64a1.017 1.017 0 0 1-.763-.764.026.026 0 0 0-.051 0 1.016 1.016 0 0 1-.763.763.026.026 0 0 0 0 .05c.378.087.677.385.763.764a.026.026 0 0 0 .05 0c.087-.379.385-.677.764-.763a.026.026 0 0 0 0-.05Z"/></svg>