<svg xmlns="http://www.w3.org/2000/svg" width="67" height="66" fill="none"><path fill="#263640" d="M33.003 0c-18.223 0-33 14.777-33 33 0 18.222 14.777 33 33 33 18.222 0 33-14.778 33-33 0-18.223-14.778-33-33-33Z"/><path fill="#1D1D1E" d="M55.668 50.917c-1.13-3.631-10.8-6.558-22.718-6.558s-21.482 2.927-22.612 6.558c-.346 1.13-.732 2.953-1.104 4.974a32.868 32.868 0 0 0 23.769 10.11c9.337 0 17.77-3.885 23.769-10.11-.36-2.021-.745-3.857-1.104-4.974Z"/><path fill="#D6E7F2" d="M35.463 59.948v5.96a32.83 32.83 0 0 0 10.176-2.422v-3.538H35.463Z"/><path fill="#556877" d="M45.64 59.842H35.463v.825h10.175v-.825ZM44.615 61.544h-4.15a.21.21 0 0 0-.213.213c0 .12.093.213.213.213h4.15a.21.21 0 0 0 .212-.213.21.21 0 0 0-.212-.213ZM44.615 63.127h-4.15a.21.21 0 0 0-.213.213c0 .12.093.213.213.213h4.15a.21.21 0 0 0 .212-.213.21.21 0 0 0-.212-.213ZM40.478 64.71a.21.21 0 0 0-.212.213c0 .12.093.213.212.213h.08c.546-.133 1.09-.266 1.623-.426h-1.703ZM39.361 61.331h-3.112v3.95h3.112v-3.95Z"/><path fill="#D4D6D8" d="m32.963 48.176-5.52-3.551s2.98 14.365 5.573 14.365c2.608 0 5.547-14.365 5.547-14.365l-5.6 3.551Z"/><path fill="#D4D6D8" d="m32.977 42.164-5.267.705.252 1.742 5.001 3.738 5.081-3.737.253-1.743-5.32-.705Z"/><path fill="#E2A379" d="M38.177 37.523H27.83c1.61 4.868.133 7.089.133 7.089l3.578.811h2.926l3.578-.811s-1.476-2.221.133-7.09Z"/><path fill="#F3FAFF" d="m38.297 42.87-.772 4.854 3.153-2.793-2.381-2.062ZM27.709 42.87l-2.38 2.06 3.151 2.794-.771-4.855Z"/><path fill="#F3FAFF" d="m38.297 42.87-5.294 2.553s4.522 2.301 4.549 2.274l3.126-2.766-2.381-2.062ZM27.709 42.87l-2.38 2.06 3.125 2.767c.026.027 4.549-2.274 4.549-2.274l-5.294-2.554Z"/><path fill="#86B4D1" d="m33.003 45.423-2.102 1.05 2.102 3.406 2.088-3.405-2.088-1.051Z"/><path fill="#86B4D1" d="M33.535 48.137h-1.078l-1.503 7.09c.665 2.207 1.37 3.75 2.048 3.75.679 0 1.384-1.53 2.035-3.71l-1.502-7.13Z"/><path fill="#4A4A54" d="M33.003 60.986v-2.009s-4.522-11.266-4.549-11.28l-2.301-3.484-1.663.851 1.064 7.356 2.168-.492-1.596 1.955 6.877 7.103Z"/><path fill="#4A4A54" d="m41.516 45.064-1.663-.851-2.301 3.485c-.027.026-4.55 11.28-4.55 11.28v2.008l6.878-7.103-1.597-1.956 2.169.493 1.064-7.356Z"/><path fill="#F4B382" d="M33.003 8.193c-6.478 0-11.745 2.82-11.745 15.11 0 4.164.825 7.422 2.062 9.936 2.713 5.534 7.408 7.462 9.683 7.462 2.274 0 6.97-1.928 9.683-7.462 1.237-2.514 2.062-5.772 2.062-9.936 0-12.29-5.268-15.11-11.745-15.11Z"/><path fill="#D89364" d="M34.613 34.45c-.453-.067-1.61.345-1.61.345s-1.157-.399-1.622-.345c-.732.106-1.836.638-1.836.824 0 .306 1.543 1.144 3.458 1.144 1.916 0 3.459-.838 3.459-1.144 0 .014-1.105-.718-1.85-.824Z"/><path fill="#CE8757" d="M33.003 35.434c-2.048 0-3.458-.146-3.458-.146 0 .306 1.543 1.49 3.458 1.49 1.916 0 3.459-1.184 3.459-1.49 0 0-1.41.146-3.459.146Z"/><path fill="#F4B382" d="M21.471 23.676c-1.117.186-1.982.678-1.343 4.376.638 3.698 1.423 3.87 2.54 3.684l-1.197-8.06Z"/><path fill="#51250D" d="M42.3 12.397c-1.01-3.299-5.52-4.403-9.297-4.403-6.478 0-11.745 4.23-11.745 15.722l2.7-.452c0-.346 12.902-7.821 12.902-7.821 1.29.758 3.325.266 3.325.266 0-.506 1.876 7.555 1.876 7.555l2.687.452c0-7.25-2.448-11.32-2.448-11.32Z"/><path fill="#51250D" d="m23.958 23.264-1.942-4.535c-.559 1.45-.745 3.245-.745 4.987 0 0 1.17-.252 1.17.346l.373 3.671.519-.252c-.053-3.06.625-4.217.625-4.217Z"/><path fill="#F4B382" d="m44.548 23.676-1.197 8.06c1.117.186 1.902.014 2.54-3.684.626-3.698-.225-4.177-1.343-4.376Z"/><path fill="#51250D" d="m44.002 18.727-1.942 4.536s.679 1.17.652 4.23l.519.253.372-3.671c0-.599 1.171-.346 1.171-.346-.013-1.77-.2-3.552-.772-5.002Z"/><path fill="#E5AA17" d="M43.112 10.175c-1.796-2.66-6.717-4.961-10.083-4.961-3.365 0-8.313 2.301-10.108 4.961-1.676 2.474-2.115 9.497-1.49 9.497H44.6c.413 0 .187-7.023-1.49-9.497Z"/><path fill="#EFC76C" d="m21.179 18.821.12 2.793s5.04.52 11.704.52c6.664 0 11.692-.52 11.692-.52l.027-2.793H21.179Z"/><path fill="#E5AA17" d="M33.003 4.762c-2.261 0-4.084.452-4.084 1.396v3.02c0 .944 1.823 11.558 4.084 11.558 2.248 0 4.083-10.614 4.083-11.558v-3.02c0-.93-1.835-1.396-4.083-1.396Z"/><path fill="#C18D17" d="M28.933 6.157c-.014-.013-.027-.013-.027 0-.107.253-.146.506-.186.759-.027.12-.027.252-.04.372-.014.12-.014.253-.014.372 0 .12 0 .253.014.373.013.12.013.253.04.372.04.253.093.506.186.758l.013.014c.014 0 .014 0 .014-.014l.013-1.503-.014-1.503ZM37.326 7.29c-.014-.12-.014-.253-.04-.373a3.941 3.941 0 0 0-.187-.758l-.013-.013c-.013 0-.013 0-.013.013l-.013 1.503.013 1.503s0 .013.013.013c.014 0 .014 0 .014-.013.106-.253.146-.506.186-.758.026-.12.026-.253.04-.373.013-.12.013-.252.013-.372s0-.24-.013-.373Z"/><path fill="#F4B21E" d="M35.424 5.693c0-.945-1.078-1.703-2.421-1.703-1.343 0-2.42.772-2.42 1.703l-1.61 12.862c0 .944 2.7 1.703 4.03 1.703s4.03-.772 4.03-1.703l-1.61-12.862Z"/><path fill="#E5AA17" d="M44.23 17.185c-1.677-.067-6.465.997-11.227.997-4.695 0-9.364-1.064-10.986-.997-1.61 0-2.142 3.139-2.142 3.139s5.653.572 13.142.572c7.488 0 13.114-.572 13.114-.572s-.505-3.14-1.902-3.14Z"/><path fill="#C18D17" d="M41.742 17.744c-.984.066-1.955.12-2.94.16-1.955.079-3.923.145-5.879.132-1.955.013-3.924-.053-5.879-.133-.984-.04-1.955-.093-2.94-.16-.984-.053-1.955-.133-2.939-.2.971.134 1.942.24 2.926.347.971.093 1.956.173 2.94.24 1.955.132 3.924.185 5.892.199a96.876 96.876 0 0 0 5.893-.2c.984-.066 1.955-.146 2.94-.24.97-.106 1.954-.199 2.925-.345-.984.066-1.955.146-2.94.2Z"/></svg>