<svg xmlns="http://www.w3.org/2000/svg" width="66" height="66" fill="none"><path fill="#263640" d="M33 0C14.777 0 0 14.777 0 33c0 18.222 14.777 33 33 33 18.222 0 33-14.778 33-33C66 14.777 51.222 0 33 0Z"/><mask id="a" width="66" height="66" x="0" y="0" maskUnits="userSpaceOnUse" style="mask-type:alpha"><path fill="#263640" d="M33 0C14.777 0 0 14.777 0 33c0 18.222 14.777 33 33 33 18.222 0 33-14.778 33-33C66 14.777 51.222 0 33 0Z"/></mask><g mask="url(#a)"><path fill="#A9D0D3" d="M21.136 21.349H15.87v5.267h5.267v-5.267ZM21.135 31.883h-5.267v5.267h5.267v-5.267ZM21.135 52.952h-5.267v5.267h5.267v-5.267ZM31.67 21.349h-5.268v5.267h5.268v-5.267ZM21.135 42.418h-5.267v5.267h5.267v-5.267ZM39.57 58.22h-7.9v7.9h7.9v-7.9Z"/><path fill="#79615B" d="M10.601 66.12V16.08h26.336v15.802H27.72c-.726 0-1.317.59-1.317 1.317v32.92H10.6Zm5.267-7.901h5.268v-5.267h-5.268v5.267Zm0-10.535h5.268v-5.267h-5.268v5.267Zm0-10.534h5.268v-5.267h-5.268v5.267Zm10.535-10.534h5.267v-5.268h-5.267v5.268Zm-10.535 0h5.268v-5.268h-5.268v5.268Z"/><path fill="#A9D0D3" d="M50.105 37.15H31.67v5.268h18.435V37.15ZM50.105 47.685H31.67v5.267h18.435v-5.267Z"/><path fill="#FF877F" d="M50.105 58.219h-5.267v7.9h5.267v-7.9Z"/><path fill="#9A8984" d="M50.105 66.12v-6.584c0-.726-.59-1.317-1.316-1.317h-2.634c-.726 0-1.317.59-1.317 1.317v6.584h-5.267v-6.584c0-.726-.59-1.317-1.317-1.317h-5.267c-.726 0-1.317.59-1.317 1.317v6.584h-5.267V31.883h28.97V66.12h-5.268ZM32.987 47.684c-.726 0-1.317.591-1.317 1.317v2.634c0 .726.59 1.317 1.317 1.317h15.802c.726 0 1.316-.591 1.316-1.317V49c0-.726-.59-1.316-1.316-1.316H32.987Zm0-10.534c-.726 0-1.317.59-1.317 1.317V41.1c0 .727.59 1.317 1.317 1.317h15.802c.726 0 1.316-.59 1.316-1.317v-2.633c0-.726-.59-1.317-1.316-1.317H32.987Z"/><path fill="#573A32" d="M32.987 54.269h15.801a2.633 2.633 0 0 0 2.634-2.634v-2.633a2.633 2.633 0 0 0-2.634-2.634H32.987a2.633 2.633 0 0 0-2.634 2.634v2.633a2.633 2.633 0 0 0 2.634 2.634Zm0-5.267h15.801v2.633H32.987v-2.633ZM32.987 43.735h15.801a2.633 2.633 0 0 0 2.634-2.634v-2.633a2.633 2.633 0 0 0-2.634-2.634H32.987a2.633 2.633 0 0 0-2.634 2.634V41.1a2.633 2.633 0 0 0 2.634 2.634Zm0-5.267h15.801V41.1H32.987v-2.633ZM21.135 20.031h-5.267c-.728 0-1.317.59-1.317 1.317v5.267c0 .728.59 1.317 1.317 1.317h5.267c.728 0 1.317-.589 1.317-1.317v-5.267c0-.728-.589-1.317-1.317-1.317ZM19.818 25.3h-2.633v-2.634h2.634v2.634ZM32.987 26.615v-5.267c0-.728-.59-1.317-1.317-1.317h-5.267c-.728 0-1.317.59-1.317 1.317v5.267c0 .728.589 1.317 1.317 1.317h5.267c.728 0 1.317-.589 1.317-1.317ZM30.353 25.3H27.72v-2.634h2.633v2.634ZM21.135 30.566h-5.267c-.728 0-1.317.59-1.317 1.317v5.267c0 .728.59 1.317 1.317 1.317h5.267c.728 0 1.317-.589 1.317-1.317v-5.267c0-.727-.589-1.317-1.317-1.317Zm-1.317 5.268h-2.633V33.2h2.634v2.634ZM21.135 41.1h-5.267c-.728 0-1.317.59-1.317 1.317v5.268c0 .727.59 1.316 1.317 1.316h5.267c.728 0 1.317-.589 1.317-1.316v-5.268c0-.727-.589-1.316-1.317-1.316Zm-1.317 5.268h-2.633v-2.634h2.634v2.634ZM21.135 51.635h-5.267c-.728 0-1.317.589-1.317 1.317v5.267c0 .727.59 1.317 1.317 1.317h5.267c.728 0 1.317-.59 1.317-1.317v-5.267c0-.728-.589-1.317-1.317-1.317Zm-1.317 5.267h-2.633v-2.634h2.634v2.634Z"/><path fill="#573A32" d="M58.006 64.803h-1.317V33.2a2.633 2.633 0 0 0-2.633-2.634H38.254V17.398a2.633 2.633 0 0 0-2.634-2.633H11.918a2.633 2.633 0 0 0-2.634 2.633v47.405H7.967a1.316 1.316 0 1 0 0 2.634h50.039a1.316 1.316 0 1 0 0-2.634ZM25.086 33.2v31.603H11.918V17.398H35.62v13.168h-7.9a2.633 2.633 0 0 0-2.634 2.634Zm13.168 31.603h-5.267v-5.267h5.267v5.267Zm10.534 0h-2.633v-5.267h2.633v5.267Zm5.268 0h-2.634v-5.267a2.633 2.633 0 0 0-2.634-2.633h-2.633a2.633 2.633 0 0 0-2.634 2.633v5.267h-2.634v-5.267a2.633 2.633 0 0 0-2.633-2.633h-5.267a2.633 2.633 0 0 0-2.634 2.633v5.267h-2.634V33.2h26.337v31.603Z"/></g></svg>