<svg xmlns="http://www.w3.org/2000/svg" width="66" height="66" fill="none"><path fill="#263640" d="M33 0C14.777 0 0 14.777 0 33c0 18.222 14.777 33 33 33 18.222 0 33-14.778 33-33C66 14.777 51.222 0 33 0Z"/><path fill="#E6E6E7" d="m41.02 17.634 12.71-2.384A1.917 1.917 0 0 1 56 17.134v34.433c0 .923-.657 1.714-1.563 1.884L41.02 55.967a1.915 1.915 0 0 1-.707 0l-14.626-2.743a1.915 1.915 0 0 0-.707 0l-12.71 2.384A1.917 1.917 0 0 1 10 53.724V19.29c0-.923.657-1.714 1.563-1.884L24.98 14.89c.233-.044.473-.044.706 0l14.627 2.743c.234.043.473.043.707 0Z"/><path fill="#BEBCB2" d="M40.667 17.667V56c-.119 0-.237-.011-.353-.033l-14.627-2.742a1.915 1.915 0 0 0-.354-.033V14.858c.119 0 .237.011.354.033l14.627 2.743c.116.022.234.033.353.033Z"/><path fill="#A5AA61" d="m41.726 21.401 10.44-1.958v30.534l-11.5 2.156-14.273-2.677a5.743 5.743 0 0 0-2.12 0l-10.44 1.958V20.881l11.5-2.156L39.607 21.4a5.726 5.726 0 0 0 2.119 0Z"/><path fill="#8A9249" d="M40.667 21.5v30.634l-14.274-2.677a5.743 5.743 0 0 0-1.06-.099V18.726l14.274 2.676c.352.066.706.099 1.06.099Z"/><path fill="#D4632E" d="M40.5 33c-.919 0-1.73-.583-1.998-1.435l-4.216-13.433C33.016 14.086 36.138 10 40.5 10s7.484 4.086 6.214 8.132l-4.216 13.433C42.23 32.417 41.419 33 40.5 33Z"/><path fill="#BC3C28" d="m46.714 18.132-4.216 13.433C42.23 32.417 41.419 33 40.5 33V10c4.362 0 7.484 4.086 6.214 8.132Z"/><path fill="#F2F2F2" d="M43.5 16.5a3 3 0 1 1-6 0 3 3 0 0 1 6 0Z"/><path fill="#E0E0E0" d="M40.5 19.5v-6a3 3 0 1 1 0 6Z"/></svg>